<svg xmlns="http://www.w3.org/2000/svg" width="250" height="250" viewBox="0 0 250 250" fill="none">
<path d="M 11.62,100.3 C 14.09,99.78 15.69,101.33 16.26,103.73 C 16.83,106.13 17.68,106.13 17.68,105.24 C 17.68,104.35 16.88,101.91 18.63,98.81 C 26.06,85.51 36.95,73.87 44.09,69.19 C 46.65,67.51 48.08,67.36 50.01,67.09 C 51.94,66.81 51.79,65.78 50.72,64.22 C 49.64,62.66 47.98,60.91 49.87,58.7 C 51.76,56.48 56.11,56.16 58.42,56.73 C 60.73,57.3 62.95,59.71 62.43,59.28 C 61.91,58.85 62.9,59.61 62.71,55.11 C 62.52,50.62 60.78,45.34 59.84,44.92 C 58.9,44.5 57.38,45.11 55.64,43.81 C 53.9,42.51 52.16,42.51 51.46,43.67 C 50.76,44.83 45.01,53.63 45.01,54.79 C 45.01,55.95 43.48,58.21 41.96,58.73 C 40.44,59.25 38.91,59.82 37.39,57.22 C 36.37,56.29 32.65,56.81 32.65,57.43 C 24.62,64.08 14.14,85.93 10.14,98.86 C 9.62,100.11 10.14,100.63 11.62,100.3 Z" fill="#0DB5B8"/>
<path d="M 58.28,39.01 C 59.03,39.53 59.88,38.28 60.63,37.26 C 61.38,36.23 66.47,30.21 66.61,29.19 C 66.75,28.17 66.14,26.47 64.71,26.66 C 63.28,26.85 63.28,28.01 62.62,30.03 C 61.96,32.06 59.31,36.79 57.62,37.81 C 56.73,38.33 57.25,38.33 58.28,39.01 Z" fill="#0DB5B8"/>
<path d="M 106.29,21.89 C 108.71,21.89 110.14,21.32 111.76,19.62 C 113.38,17.92 111.76,17.64 110.73,18.21 C 109.7,18.78 106.91,20.99 106.02,21.51 C 105.13,22.03 105.74,21.89 106.29,21.89 Z" fill="#0DB5B8"/>
<path d="M 117.72,36.93 C 116.78,36.18 116.83,38.73 117.06,39.43 C 117.29,40.14 119.76,40.66 120.09,40.19 C 120.41,39.72 118.66,37.68 117.72,36.93 Z" fill="#0DB5B8"/>
<path d="M 123.09,28.76 C 121.89,28.01 121.61,29.31 121.93,30.25 C 122.26,31.19 124.91,38.92 124.81,40.09 C 124.72,41.25 125.61,41.2 125.75,39.3 C 125.89,37.4 124.54,30.03 123.09,28.76 Z" fill="#0DB5B8"/>
<path d="M 78.51,31.14 C 78.93,33.83 78.32,36.09 79.98,35.95 C 81.64,35.81 83.21,32.76 87.91,27.63 C 93.71,21.27 103.81,17.21 106.28,14.72 C 108.75,12.23 109.6,10 108.71,10 C 101.99,10.75 91.1,14.48 84.97,16.09 C 83.31,16.37 82.79,16.37 82.79,17.93 C 82.79,19.49 81.22,22.69 78.75,25.09 C 77.32,26.93 78.18,28.63 78.51,31.14 Z" fill="#0DB5B8"/>
<path d="M 242.91,104.73 C 220.22,127.09 188.19,146.03 150.04,145.98 C 127.31,147.82 104.72,145.23 90.87,143.93 C 77.02,142.63 41.01,140.14 16.12,150.45 C 11.81,152.34 6.21,155.72 6,156.47 C 5.39,160.11 9.83,172.03 11.91,175.46 C 13.94,175.93 25.32,168.75 45.01,166.59 C 62.81,164.47 84.41,167.06 106.11,165.66 C 127.81,165.66 167.82,169.18 205.15,150.97 C 221.92,143.46 233.12,134.71 242.87,123.92 C 243.81,116.78 243.95,110.08 243.1,104.71 C 243.01,104.48 242.96,104.62 242.91,104.73 Z" fill="#09B1B2"/>
<path d="M 19.11,113.09 C 20.63,113.84 22.71,115.14 23.65,115.14 C 24.59,115.14 23.98,114.21 22.95,113.41 C 21.92,112.62 21.26,112.62 19.69,112.71 C 18.12,112.81 16.23,112.33 15.11,112.24 C 13.99,112.15 15.83,112.81 19.11,113.09 Z" fill="#0DB5B8"/>
<path d="M 26.72,116.61 C 27.1,117.86 28.08,117.86 28.93,117.53 C 29.78,117.2 30.72,116.78 30.01,116.03 C 29.31,115.28 28.46,114.91 28.04,115.28 C 27.62,115.66 26.41,115.75 26.72,116.61 Z" fill="#0DB5B8"/>
<path d="M 11.06,125.71 C 9.94,123.96 8.01,124.01 8,125.71 C 7.96,128.59 10.13,136.23 15.31,136.8 C 18.01,137.17 18.62,136.75 18.62,136.75 L 19.42,137.31 L 19.61,135.91 L 18.04,135.16 L 18.37,134.32 C 13.04,135.98 11.83,127.81 11.06,125.71 Z" fill="#0DB5B8"/>
<path d="M 20.16,134.74 C 21.68,135.16 20.74,138.68 20.93,139.94 C 21.11,141.19 21.68,140.21 23.85,139.65 C 26.02,139.08 39.19,136.63 43.81,136.31 C 46.7,136.08 46.61,135.33 46.04,134.26 C 44.61,132.05 43.27,129.84 37.1,129.7 C 31.92,129.56 25.61,128.9 23.72,129.27 C 21.83,129.65 21.68,134.32 20.16,134.74 Z" fill="#0DB5B8"/>
<path d="M 59.08,55.53 C 60.65,55.53 61.68,54.41 62.53,53.11 C 62.67,52.88 62.39,54.73 62.34,56.14 C 62.29,57.55 62.62,58.71 61.73,58.38 C 60.84,58.05 57.71,56.49 56.91,56.06 C 56.11,55.63 57.52,55.53 59.08,55.53 Z" fill="#A1D2D1"/>
<path d="M 173.16,16.46 C 167.18,16.46 164.14,17.93 161.49,18.96 C 160.46,19.43 161.49,16.09 158.45,14.84 C 155.41,13.59 153.04,11.79 146.82,11.79 C 142.42,11.79 140.25,16.79 137.83,18.91 C 136.21,20.07 135.46,20.07 133.89,23.65 C 132.68,26.14 134.11,25.91 136.28,26.38 C 138.45,26.85 142.28,28.97 143.71,29.81 C 145.14,30.66 144.91,28.68 144.91,27.08 C 144.91,25.47 144.48,20.39 147.52,17.8 C 148.95,16.78 149.89,17.8 149.47,20.02 C 149.04,22.23 149.98,23.93 152.06,23.79 C 154.13,23.65 154.98,22.81 155.92,22.81 C 156.86,22.81 151.31,29.21 149.74,30.82 C 148.17,32.43 145.71,32.71 143.91,31.29 C 142.12,29.87 141.51,28.98 140.08,29.59 C 138.65,30.2 137.62,31.22 138.19,31.5 C 138.76,31.78 136.96,32.11 135.17,34.18 C 133.38,36.26 129.26,42.09 126.08,43.51 C 124.65,44.21 125.22,45.28 126.65,47.87 C 127.59,49.43 127.02,50.99 125.45,50.99 C 123.88,50.99 119.04,50.71 118.76,55.58 C 118.48,60.45 118.76,62.76 122.97,62.76 C 123.68,62.76 123.63,64.22 123.44,65.83 L 123.21,67.63 C 121.23,68.52 119.43,69.13 118.63,73.26 C 117.83,77.39 115.81,79.75 113.59,81.82 C 111.37,83.89 108.05,90.48 107.86,93.32 C 107.67,96.16 108.47,103.71 107.62,109.08 C 106.78,113.42 110.19,115.78 114.16,118.04 C 117.01,119.6 118.99,123.94 122.17,124.22 C 125.35,124.5 134.42,121.71 137.31,117.37 C 139.11,118.67 142.05,121.12 146.16,122.37 C 149.2,123.3 148.73,125.15 149.15,128.93 C 149.57,132.71 152.04,137.01 157.32,136.73 C 166.01,136.07 180.19,131.78 190.62,127.23 C 194.83,125.82 203.95,109.03 204.7,105.11 C 205.78,99.74 206.01,97.8 203.02,99.74 C 200.03,101.68 199.75,102.66 194.81,99.18 C 190.85,96.34 187.12,88.13 183.71,85.03 C 180.3,81.93 175.11,74.98 177.58,72.05 C 178.24,70.98 177.62,68.91 179.75,70.11 C 182.45,71.62 193.15,87.34 196.88,93.65 C 198.95,97.18 199.75,97.13 201.13,96.01 C 206.07,92.91 208.68,89.86 210.71,85.27 C 212.09,82.73 211.34,80.14 209.81,77.69 C 207.92,79.11 205.99,79.39 202.02,77.31 C 198.93,75.75 195.71,71.16 196.83,70.04 C 197.95,68.92 198.18,68.5 199.98,69.85 C 201.77,71.21 206.71,75.08 209.75,75.08 C 212.79,75.08 216.36,74.71 217.88,74.85 C 221.06,75.13 226.39,80.64 229.33,80.64 C 230.99,80.64 231.79,78.84 232.22,79.68 C 232.64,80.52 233.71,87.12 234.92,87.78 C 236.13,88.44 234.56,84.52 233.71,79.65 C 228.16,55.01 203.01,16.46 173.16,16.46 Z" fill="#0BB7BC"/>
<path d="M 165.11,46.06 C 163.9,47.71 163.71,50.71 164.14,52.02 C 162.11,53.27 160.08,54.52 159.33,56.13 C 158.58,57.74 159.28,59.15 159.71,58.03 C 160.13,56.91 162.21,54.32 164.81,54.32 C 167.41,54.32 167.88,53.95 168.73,53.38 C 170.9,52.54 174.87,53.43 177.91,53.43 C 181.42,53.43 182.63,51.22 180.07,48.77 C 177.51,46.32 174.38,46.51 171.82,45.67 C 169.26,44.83 166.32,44.41 165.11,46.06 Z" fill="white"/>
<path d="M 144.29,46.34 C 142.12,46.34 143.24,47.95 144.29,48.51 C 144.95,48.89 144.29,50.45 145.23,51.01 C 146.17,51.58 148.11,52.28 149.9,55.22 C 151.69,58.16 151.41,59.81 151.41,60.93 C 152.07,60.18 152.45,58.38 152.07,56.82 C 151.69,55.26 147.63,49.94 146.83,49.05 C 146.03,48.16 147.24,48.11 148.94,48.72 C 150.64,49.33 150.78,48.58 149.21,47.42 C 147.63,46.26 146.46,46.34 144.29,46.34 Z" fill="white"/>
<path d="M 124.86,65.12 C 124.43,65.45 124.01,66.81 125.53,67.19 C 127.06,67.56 135.18,60.61 141.11,61.13 C 144.62,61.41 147.94,69.05 155.08,71.31 C 158.59,72.47 160.21,70.16 161.91,68.6 C 163.07,67.58 165.15,68.6 166.62,69.17 C 168.09,69.74 169.26,69.74 170.29,68.62 C 171.32,67.5 172.89,68.52 174.92,68.24 C 176.95,67.96 177.79,65.12 177.79,62.81 C 177.79,60.51 177.18,57.07 173.02,57.3 C 170.6,57.44 171.31,58.65 168.18,57.95 C 166.15,57.48 165.73,56.17 166.48,54.52 C 167.23,52.87 167.46,52.21 165.43,52.21 C 163.4,52.21 158.69,53.81 158.12,56.26 C 157.55,58.71 158.12,60.92 157.23,60.5 C 156.34,60.08 152.13,50.08 147.19,48.77 C 144.72,48.02 145.19,49.96 144.25,50.43 C 143.31,50.9 143.12,49.65 140.51,48.72 C 136.74,47.36 132.91,51.09 130.31,56.12 C 128.42,59.94 126.39,64.18 124.86,65.12 Z" fill="white"/>
<path d="M 13.99,181.33 C 17.03,187.83 19.92,192.79 24.32,197.7 C 41.77,188.91 61.46,186.02 85.06,186.02 C 98.91,186.02 116.96,188.56 130.81,189.13 C 159.12,190.29 179.19,187.1 195.91,180.11 C 208.75,174.93 224.61,167.01 233.95,160.07 C 238.16,152.01 240.28,143.6 241.31,133.34 C 221.18,157.99 189.15,170.19 146.12,170.19 C 127.54,170.19 109.54,168.16 90.04,168.16 C 62.02,168.16 40.76,169.14 13.99,181.33 Z" fill="url(#paint0_linear_318_2093)"/>
<path d="M 28.22,201.9 C 33.77,208.84 37.64,212.13 44.78,216.42 C 56.16,210.02 75.06,208.13 89.81,208.13 C 104.56,208.13 118.41,211.06 140.73,211.06 C 165.82,211.06 186.94,205.69 209.76,196.22 C 217.24,188.35 224.38,177.61 229.61,168.16 C 207.91,183.19 187.13,191.94 154.23,192.08 C 132.97,192.18 120.27,190.72 100.29,190.72 C 76.01,190.72 52.18,191.7 28.22,201.9 Z" fill="url(#paint1_linear_318_2093)"/>
<path d="M 49.08,220.11 C 66.7,232.96 87.81,239.41 112.91,239.41 C 144.62,239.41 173.41,227.63 199.51,206.17 C 200.54,205.15 202.81,203.12 202.81,202.6 C 185.36,210.41 167.65,213.94 146.17,213.94 C 127.72,213.94 114.06,212.43 95.49,212.43 C 80.21,212.43 62.81,214.13 49.08,220.11 Z" fill="url(#paint2_linear_318_2093)"/>
<defs>
<linearGradient id="paint0_linear_318_2093" x1="127.651" y1="133.336" x2="127.651" y2="197.698" gradientUnits="userSpaceOnUse">
<stop stop-color="#3F80B1"/>
<stop offset="1" stop-color="#2B73AA"/>
</linearGradient>
<linearGradient id="paint1_linear_318_2093" x1="128.916" y1="168.156" x2="128.916" y2="216.421" gradientUnits="userSpaceOnUse">
<stop stop-color="#3375AE"/>
<stop offset="1" stop-color="#2C6BA7"/>
</linearGradient>
<linearGradient id="paint2_linear_318_2093" x1="125.944" y1="202.596" x2="125.944" y2="239.406" gradientUnits="userSpaceOnUse">
<stop stop-color="#296CB3"/>
<stop offset="1" stop-color="#2564AF"/>
</linearGradient>
</defs>
</svg>