<?xml version="1.0" encoding="iso-8859-1"?>
<!-- Uploaded to: SVG Repo, www.svgrepo.com, Generator: SVG Repo Mixer Tools -->
<svg height="800px" width="800px" version="1.1" id="Layer_1" xmlns="http://www.w3.org/2000/svg" xmlns:xlink="http://www.w3.org/1999/xlink" 
	 viewBox="0 0 469.333 469.333" xml:space="preserve">
<path style="fill:#D94452;" d="M287.311,416H32.687c-12.309,0-22.059-10.379-21.291-22.667L30.063,94.667
	c0.704-11.243,10.027-20,21.291-20h214.624L287.311,416z"/>
<path style="fill:#A3333E;" d="M265.978,74.667h24.629c11.317,0,20.661,8.832,21.301,20.139l16.8,298.667
	c0.693,12.235-9.045,22.528-21.301,22.528h-20.096L265.978,74.667z"/>
<path d="M322.565,94.208C321.615,77.269,307.578,64,290.618,64h-13.973c0-35.296-28.704-64-64-64c-11.659,0-22.571,3.189-32,8.661
	C171.215,3.189,160.303,0,148.645,0c-35.296,0-64,28.704-64,64H51.354C34.49,64,20.463,77.173,19.418,93.995L0.751,392.661
	c-0.555,8.779,2.581,17.493,8.619,23.904c6.016,6.421,14.517,10.101,23.317,10.101h254.624h20.107
	c8.757,0,17.227-3.648,23.243-10.005c6.016-6.379,9.195-15.04,8.693-23.776L322.565,94.208z M255.311,64h-42.667
	c0-15.157-5.323-29.088-14.165-40.064c4.459-1.579,9.173-2.603,14.165-2.603C236.175,21.333,255.311,40.469,255.311,64z
	 M180.645,36.075c6.56,7.499,10.667,17.195,10.667,27.925h-21.333C169.978,53.269,174.085,43.573,180.645,36.075z M148.645,21.333
	c4.992,0,9.707,1.024,14.165,2.603C153.967,34.912,148.645,48.843,148.645,64h-42.667C105.978,40.469,125.114,21.333,148.645,21.333
	z M32.687,405.333c-2.976,0-5.739-1.195-7.776-3.36s-3.061-5.003-2.88-7.968L40.698,95.328c0.352-5.611,5.035-9.995,10.656-9.995
	h33.291v32c0,5.899,4.768,10.667,10.667,10.667s10.667-4.768,10.667-10.667v-32h85.333v32c0,5.899,4.768,10.667,10.667,10.667
	s10.667-4.768,10.667-10.667v-32h43.317l20,320H32.687z M315.151,402.005c-2.027,2.144-4.779,3.328-7.744,3.328h-10.08l-20-320
	h13.28c5.653,0,10.336,4.427,10.656,10.059l16.789,298.667C318.223,397.035,317.199,399.84,315.151,402.005z"/>
<path style="fill:#F5B945;" d="M457.978,277.333c0,21.696-45.355,34.208-53.184,53.077c-8.107,19.552,14.805,60.416,0.064,75.147
	c-14.741,14.741-55.595-8.181-75.147-0.075c-18.859,7.829-31.371,53.184-53.067,53.184s-34.208-45.355-53.077-53.184
	c-19.552-8.107-60.416,14.805-75.147,0.064c-14.741-14.741,8.181-55.595,0.075-75.147c-7.829-18.859-53.184-31.371-53.184-53.067
	s45.355-34.208,53.184-53.077c8.107-19.552-14.805-60.416-0.064-75.147c14.741-14.741,55.595,8.181,75.147,0.075
	C242.447,141.365,254.959,96,276.655,96s34.208,45.355,53.077,53.184c19.552,8.107,60.416-14.805,75.147-0.064
	c14.741,14.741-8.181,55.595-0.075,75.147C412.623,243.125,457.978,255.637,457.978,277.333z"/>
<path d="M276.645,469.333c-17.845,0-29.248-17.376-39.307-32.693c-5.877-8.949-12.533-19.083-17.856-21.291
	c-5.835-2.432-18.133,0.085-29.013,2.283c-18.421,3.744-37.483,7.584-49.589-4.533c-12.128-12.128-8.256-31.179-4.533-49.6
	c2.208-10.859,4.693-23.168,2.283-28.992c-2.208-5.333-12.341-11.989-21.291-17.867c-15.317-10.059-32.693-21.461-32.693-39.307
	s17.376-29.248,32.693-39.307c8.949-5.877,19.083-12.533,21.291-17.856c2.421-5.835-0.075-18.144-2.283-29.013
	c-3.733-18.432-7.595-37.483,4.533-49.589c12.139-12.128,31.189-8.256,49.6-4.533c10.859,2.197,23.179,4.715,28.992,2.283
	c5.333-2.208,11.989-12.341,17.867-21.291c10.059-15.317,21.461-32.693,39.307-32.693s29.248,17.376,39.307,32.693
	c5.877,8.949,12.533,19.083,17.856,21.291c5.856,2.443,18.144-0.085,29.013-2.283c18.432-3.723,37.493-7.573,49.589,4.533
	c12.128,12.128,8.256,31.179,4.533,49.6c-2.208,10.859-4.693,23.168-2.283,28.992c2.208,5.333,12.341,11.989,21.291,17.867
	c15.328,10.048,32.693,21.461,32.693,39.307s-17.376,29.248-32.693,39.307c-8.949,5.877-19.083,12.533-21.291,17.856
	c-2.421,5.835,0.075,18.144,2.283,29.013c3.733,18.432,7.595,37.483-4.533,49.589c-12.117,12.117-31.179,8.245-49.6,4.533
	c-10.859-2.197-23.179-4.715-28.992-2.283c-5.333,2.208-11.989,12.341-17.867,21.291
	C305.893,451.957,294.49,469.333,276.645,469.333z M212.847,393.045c5.269,0,10.283,0.704,14.827,2.592
	c11.381,4.715,19.584,17.205,27.509,29.291C261.925,435.211,270.33,448,276.655,448s14.731-12.789,21.472-23.072
	c7.925-12.085,16.128-24.576,27.52-29.291c11.84-4.928,26.891-1.867,41.408,1.077c11.083,2.261,26.272,5.312,30.283,1.301
	c4.021-4.021,0.949-19.2-1.301-30.272c-2.944-14.539-5.995-29.568-1.077-41.429c4.715-11.381,17.205-19.584,29.291-27.509
	c10.283-6.741,23.072-15.147,23.072-21.472c0-6.325-12.789-14.731-23.072-21.472c-12.085-7.925-24.576-16.128-29.291-27.52
	c-4.917-11.84-1.877-26.88,1.077-41.408c2.251-11.083,5.323-26.261,1.301-30.283c-4.011-4-19.189-0.949-30.272,1.301
	c-14.539,2.933-29.568,5.995-41.429,1.077c-11.381-4.715-19.584-17.205-27.509-29.291c-6.741-10.283-15.147-23.072-21.472-23.072
	c-6.325,0-14.731,12.789-21.472,23.072c-7.925,12.085-16.128,24.576-27.52,29.291c-11.84,4.939-26.88,1.867-41.408-1.077
	c-11.072-2.261-26.251-5.301-30.283-1.301c-4.021,4.021-0.949,19.2,1.301,30.272c2.944,14.539,5.995,29.568,1.077,41.429
	c-4.715,11.381-17.205,19.584-29.291,27.509c-10.283,6.741-23.072,15.147-23.072,21.472c0,6.325,12.789,14.731,23.072,21.472
	c12.085,7.925,24.576,16.128,29.291,27.52c4.917,11.84,1.877,26.88-1.077,41.408c-2.251,11.083-5.323,26.261-1.301,30.283
	c4.011,4.011,19.189,0.949,30.272-1.301C195.205,394.891,204.367,393.045,212.847,393.045z"/>
<circle style="fill:#F7C76A;" cx="276.645" cy="277.333" r="74.667"/>
<path d="M212.645,304c-23.531,0-42.667-23.925-42.667-53.333s19.136-53.333,42.667-53.333s42.667,23.925,42.667,53.333
	S236.175,304,212.645,304z M212.645,218.667c-11.563,0-21.333,14.656-21.333,32s9.771,32,21.333,32
	c11.563,0,21.333-14.656,21.333-32S224.207,218.667,212.645,218.667z"/>
<path d="M340.645,357.333c-23.531,0-42.667-23.925-42.667-53.333c0-29.408,19.136-53.333,42.667-53.333s42.667,23.925,42.667,53.333
	C383.311,333.408,364.175,357.333,340.645,357.333z M340.645,272c-11.563,0-21.333,14.656-21.333,32s9.771,32,21.333,32
	s21.333-14.656,21.333-32S352.207,272,340.645,272z"/>
<path d="M244.634,357.333c-1.493,0-3.008-0.309-4.459-0.981c-5.355-2.464-7.691-8.811-5.216-14.155l64-138.667
	c2.475-5.344,8.789-7.691,14.155-5.216c5.355,2.464,7.691,8.811,5.216,14.155l-64,138.667
	C252.527,355.04,248.666,357.333,244.634,357.333z"/>
</svg>