<svg width="30" height="22" viewBox="0 0 30 22" fill="none" xmlns="http://www.w3.org/2000/svg">
<path d="M1.01904 22H1.71498C2.32393 22 2.72159 21.5754 2.72159 20.9041V18.9589C2.8583 19 3.25602 19.0274 3.54182 19.0274H26.4706C26.7565 19.0274 27.1418 19 27.2785 18.9589V20.9041C27.2785 21.5754 27.676 22 28.2851 22H28.9934C29.6024 22 30 21.5754 30 20.9041V11.9726C30 9.63017 28.9188 8.31505 26.9181 8.15071V3.65754C26.9181 1.23292 25.7499 0 23.6124 0H6.38775C4.26263 0 3.08202 1.23292 3.08202 3.65754V8.15071C1.08118 8.31505 0 9.63017 0 11.9726V20.9041C0 21.5754 0.397661 22 1.01904 22ZM6.20132 5.71233C6.20132 4.50687 6.81027 3.83564 7.92873 3.83564H12.092C13.198 3.83564 13.8194 4.50687 13.8194 5.71233V8.13701H6.20132V5.71233ZM16.1931 5.71233C16.1931 4.50687 16.802 3.83564 17.9205 3.83564H22.0713C23.1897 3.83564 23.8112 4.50687 23.8112 5.71233V8.13701H16.1931V5.71233ZM2.4855 17.0274C2.23693 17.0274 2.07541 16.8356 2.07541 16.5206V11.7672C2.07541 10.7671 2.67193 10.137 3.59154 10.137H26.421C27.3281 10.137 27.9247 10.7671 27.9247 11.7672V16.5206C27.9247 16.8356 27.7631 17.0274 27.5269 17.0274H2.4855Z" fill="#FF717E"/>
</svg>
