<svg width="28" height="28" viewBox="0 0 28 28" fill="none" xmlns="http://www.w3.org/2000/svg">
<path d="M3.79297 21.3716L12.9922 26.5982C13.6719 26.9849 14.3047 26.9966 15.0078 26.5982L24.207 21.3716C25.2969 20.7505 25.8945 20.1177 25.8945 18.4185V9.1372C25.8945 7.83645 25.379 7.09815 24.418 6.54735L16.1328 1.83645C14.6914 1.0044 13.2852 1.0161 11.8672 1.83645L3.58202 6.54735C2.62107 7.09815 2.10547 7.83645 2.10547 9.1372V18.4185C2.10547 20.1177 2.70312 20.7505 3.79297 21.3716ZM14 13.0161L5.07032 7.96535L12.6992 3.60595C13.5898 3.10205 14.3867 3.09035 15.3008 3.60595L22.9297 7.96535L14 13.0161ZM4.89452 19.731C4.22657 19.356 4.00392 18.9927 4.00392 18.3599V9.61765L13.0156 14.7622V24.3482L4.89452 19.731ZM23.1055 19.731L14.9844 24.3482V14.7622L23.9961 9.61765V18.3599C23.9961 18.9927 23.7734 19.356 23.1055 19.731Z" fill="#FF717E"/>
</svg>
