<svg width="28" height="28" viewBox="0 0 28 28" fill="none" xmlns="http://www.w3.org/2000/svg">
<path d="M27.0347 3.00977H0.965344C0.423391 3.00977 0 3.42714 0 3.96909V22.6953C0 23.2373 0.423391 23.6827 0.965344 23.6827H2.08731C2.04963 23.8135 2.02803 23.8957 2.02803 24.0128C2.02803 24.5548 2.46739 24.9911 3.00934 24.9911H5.95328C6.49523 24.9911 6.93459 24.5548 6.93459 24.0128C6.93459 23.8956 6.91299 23.8135 6.87531 23.6827H21.1247C21.087 23.8135 21.0654 23.8957 21.0654 24.0128C21.0654 24.5547 21.5048 24.9911 22.0467 24.9911H24.9907C25.5326 24.9911 25.972 24.5548 25.972 24.0128C25.972 23.8956 25.9504 23.8135 25.9127 23.6827H27.0347C27.5766 23.6827 28 23.2373 28 22.6953V3.96909C28 3.42714 27.5766 3.00977 27.0347 3.00977ZM26.0374 21.7201H1.96263V4.97239H26.0374V21.7201Z" fill="#FF717E"/>
<path d="M24.3356 17.9258H22.7001C22.1581 17.9258 21.7188 18.3651 21.7188 18.9071C21.7188 19.449 22.1581 19.8884 22.7001 19.8884H24.3356C24.8776 19.8884 25.3169 19.449 25.3169 18.9071C25.3169 18.3651 24.8776 17.9258 24.3356 17.9258Z" fill="#FF717E"/>
<path d="M19.6276 6.73828H4.45006C3.90811 6.73828 3.46875 7.17764 3.46875 7.71959V18.9065C3.46875 19.4485 3.90811 19.8878 4.45006 19.8878H19.6276C20.1696 19.8878 20.609 19.4485 20.609 18.9065V7.71959C20.6089 7.17764 20.1695 6.73828 19.6276 6.73828ZM18.6463 17.9252H5.43138V8.70091H18.6463V17.9252Z" fill="#FF717E"/>
<path d="M23.5183 14.937C24.1195 14.937 24.6069 14.4496 24.6069 13.8484C24.6069 13.2472 24.1195 12.7598 23.5183 12.7598C22.9171 12.7598 22.4297 13.2472 22.4297 13.8484C22.4297 14.4496 22.9171 14.937 23.5183 14.937Z" fill="#FF717E"/>
<path d="M23.5184 11.65C24.1196 11.65 24.607 11.1626 24.607 10.5613C24.607 9.96007 24.1196 9.47266 23.5184 9.47266C22.9171 9.47266 22.4297 9.96007 22.4297 10.5613C22.4297 11.1626 22.9171 11.65 23.5184 11.65Z" fill="#FF717E"/>
</svg>
