<svg width="84" height="93" viewBox="0 0 84 93" fill="none" xmlns="http://www.w3.org/2000/svg">
<path d="M47.7917 88.588V71.9495C47.7917 69.6919 49.3318 67.8634 51.2307 67.8634C58.0066 67.8634 61.6929 59.6066 62.2045 43.3076H51.2307C49.3321 43.3076 47.7917 41.4765 47.7917 39.2215V4.08869C47.7917 1.83195 49.3318 0.00342797 51.2307 0.00342797H80.4882C82.3866 0.00342797 83.9275 1.83395 83.9275 4.08869V39.2218C83.9275 47.0343 83.2636 54.2036 81.9605 60.5353C80.6218 67.0261 78.5669 72.7008 75.8542 77.4034C73.0643 82.2359 69.5714 86.0281 65.4786 88.6691C61.3548 91.3269 56.5612 92.6758 51.2293 92.6758C49.3321 92.6741 47.7917 90.8438 47.7917 88.588ZM3.43833 67.862C1.53969 67.862 0 77.4003 0 79.6547V88.5882C0 90.8438 1.53969 92.6726 3.43833 92.6726C8.76762 92.6726 13.5636 91.3234 17.6848 88.6659C21.7797 86.0253 25.2721 82.2362 28.0618 77.4003C30.7762 72.6977 32.8309 67.0227 34.1696 60.5287C35.4734 54.197 36.1358 47.0275 36.1358 39.2183V4.08526C36.1358 1.82853 34.5947 0 32.6967 0H3.43833C1.53969 0 0 1.83024 0 4.08526V39.2183C0 41.4748 1.53969 43.3044 3.43833 43.3044H14.258C13.7526 59.6049 10.1195 67.862 3.43833 67.862Z" fill="#FF717E"/>
</svg>
