<svg width="364" height="114" viewBox="0 0 364 114" fill="none" xmlns="http://www.w3.org/2000/svg">
<path d="M82.0224 3.5C78.5003 13.6776 74.9783 23.8552 71.4029 33.2523C64.6195 51.0809 60.4695 60.3485 60.3628 60.7765C60.2624 61.1793 60.8776 58.712 64.7167 51.521C68.5558 44.3299 75.807 31.6599 80.682 25.1329C85.557 18.6059 87.8359 18.6059 89.0099 19.3329C90.1839 20.0598 90.1839 21.5138 89.4588 23.6129C87.738 28.5941 83.9246 33.2712 79.2349 37.6645C66.9428 49.1795 55.0452 49.8625 52.5308 49.7649C50.5702 49.6888 58.5296 43.5998 69.7988 38.9894C75.524 36.6471 81.8968 36.0406 89.3458 35.5056C96.7948 34.9706 105.289 34.9706 108.836 36.3207C112.383 37.6708 110.726 40.3709 108.215 43.5274C105.703 46.6839 102.389 50.2149 96.8482 54.2149C91.3077 58.2148 83.6421 62.5766 74.0994 66.9006C64.5566 71.2247 53.369 75.3788 42.1154 78.4535C30.8618 81.5282 19.8814 83.3975 12.7745 83.6336C5.66769 83.8696 2.76719 82.4156 3.65555 79.4857C4.54391 76.5558 9.30901 72.194 26.3698 69.3239C43.4307 66.4538 72.6428 65.2075 100.847 58.3344C129.052 51.4612 155.364 38.9988 171.301 30.9172C187.238 22.8355 192.003 19.5122 194.043 17.8002C196.084 16.0882 195.255 16.0882 193.792 16.6075C190.152 17.8995 179.629 21.5201 164.376 26.1242C152.498 29.7097 145.871 35.3671 142.628 39.6597C141.228 41.5138 141.25 43.3292 141.558 45.016C141.866 46.7028 142.694 48.3645 145.297 49.8436C147.899 51.3227 152.25 52.5689 162.674 53.1071C173.099 53.6452 189.466 53.4375 200.488 52.1881C211.509 50.9388 216.688 48.654 215.42 49.2425C214.152 49.831 206.279 53.362 186.789 58.6082C167.298 63.8543 136.429 70.7086 120.112 74.4473C103.795 78.186 102.966 78.6014 122.843 74.142C142.719 69.6826 183.326 60.3359 203.934 56.0402C224.542 51.7444 223.921 52.7829 220.389 54.8757C216.858 56.9685 210.435 60.0841 202.465 62.9354C194.495 65.7866 185.172 68.2791 180.059 69.7708C174.945 71.2625 174.324 71.6779 180.633 71.8919C186.943 72.1059 200.202 72.1059 216.666 70.9635C233.131 69.8211 252.398 67.5364 265.95 65.4247C279.501 63.313 286.752 61.4436 289.452 60.9999C292.152 60.5562 290.08 61.5947 285.594 62.2336C281.108 62.8724 274.271 63.0801 231.178 57.1636C188.085 51.2472 108.943 39.2002 64.0292 31.4364C19.1155 23.6726 10.8283 20.5571 19.6114 18.9521C28.3945 17.3471 54.499 17.3471 84.3139 20.2549C114.129 23.1628 146.863 28.9786 163.415 32.7016C179.968 36.4245 179.346 37.8785 179.958 39.9776C180.57 42.0766 182.435 44.7768 214.679 52.8144C246.924 60.852 309.492 74.1452 338.72 82.6548C367.947 91.1645 361.939 94.4878 353.872 98.2768C345.804 102.066 335.86 106.22 325.614 110.5" stroke="#333333" stroke-width="7" stroke-linecap="round"/>
</svg>
