<svg width="28" height="28" viewBox="0 0 28 28" fill="none" xmlns="http://www.w3.org/2000/svg">
<g clip-path="url(#clip0_660_2804)">
<path d="M26.3905 11.6126L22.7488 8.18697V2.62459C22.7488 2.14159 22.3568 1.74959 21.8738 1.74959H18.3738C17.8908 1.74959 17.4988 2.14159 17.4988 2.62459V3.25022L14.6402 0.562219C14.4722 0.403844 14.256 0.324219 14.0408 0.324219C13.8264 0.324219 13.6112 0.402969 13.4432 0.559594L1.61929 11.61C1.03917 12.1525 1.42242 13.1246 2.21692 13.1246H2.62379V27.1246C2.62379 27.6076 3.01579 27.9996 3.49879 27.9996H24.4988C24.9818 27.9996 25.3738 27.6076 25.3738 27.1246V13.1246H25.7912C26.5839 13.1246 26.968 12.1551 26.3905 11.6126ZM20.9988 3.49959V7.74247L19.2488 6.09659V3.49959H20.9988ZM14.039 2.39797L23.5835 11.3746H4.43417L14.039 2.39797ZM11.3738 26.2496H7.87379V18.3746H11.3738V26.2496ZM23.6238 26.2496H12.2488V17.4996H6.99879V26.2496H4.37379V12.2496H23.6238V26.2496ZM20.9988 17.4996H15.7488V22.7496H20.9988V17.4996ZM20.1238 21.8746H16.6238V18.3746H20.1238V21.8746Z" fill="#FF717E"/>
</g>
<defs>
<clipPath id="clip0_660_2804">
<rect width="28" height="28" fill="white"/>
</clipPath>
</defs>
</svg>
