<svg width="32" height="32" viewBox="0 0 32 32" fill="none" xmlns="http://www.w3.org/2000/svg">
<path d="M8 20.5C10.4853 20.5 12.5 18.4853 12.5 16C12.5 13.5147 10.4853 11.5 8 11.5C5.51472 11.5 3.5 13.5147 3.5 16C3.5 18.4853 5.51472 20.5 8 20.5Z" stroke="#FF717E" stroke-width="2.5" stroke-linecap="round" stroke-linejoin="round"/>
<path d="M24 28.5C26.4853 28.5 28.5 26.4853 28.5 24C28.5 21.5147 26.4853 19.5 24 19.5C21.5147 19.5 19.5 21.5147 19.5 24C19.5 26.4853 21.5147 28.5 24 28.5Z" stroke="#FF717E" stroke-width="2.5" stroke-linecap="round" stroke-linejoin="round"/>
<path d="M24 12.5C26.4853 12.5 28.5 10.4853 28.5 8C28.5 5.51472 26.4853 3.5 24 3.5C21.5147 3.5 19.5 5.51472 19.5 8C19.5 10.4853 21.5147 12.5 24 12.5Z" stroke="#FF717E" stroke-width="2.5" stroke-linecap="round" stroke-linejoin="round"/>
<path d="M12 18L20 22M12 14L20 10" stroke="#FF717E" stroke-width="2.5" stroke-linecap="round" stroke-linejoin="round"/>
</svg>
